<?xml version="1.0" encoding="UTF-8"?>
<!-- Created with Inkscape (http://www.inkscape.org/) -->
<svg width="400" height="380" version="1.0" xmlns="http://www.w3.org/2000/svg" xmlns:cc="http://creativecommons.org/ns#"
     xmlns:dc="http://purl.org/dc/elements/1.1/" xmlns:rdf="http://www.w3.org/1999/02/22-rdf-syntax-ns#"
     xmlns:xlink="http://www.w3.org/1999/xlink">
    <defs>
        <linearGradient id="_a" x1="19.639" x2="380.36" y1="180" y2="180" gradientUnits="userSpaceOnUse"
                        xlink:href="#_b"/>
        <linearGradient id="_b">
            <stop stop-color="#28a745" stop-opacity=".99065" offset="0"/>
            <stop stop-color="#72c02c" stop-opacity="0" offset="1"/>
        </linearGradient>
    </defs>
    <g transform="matrix(.99999 0 0 .99999 .00179 .005028)" fill="url(#_a)">
        <path transform="matrix(.85164 -.52413 .52413 .85164 -45.279 132.51)"
              d="m374 169a190 152 0 1 1-380 0 190 152 0 1 1 380 0z" fill="url(#_a)"/>
    </g>
    <g transform="translate(374.49 -22.881)">
        <path d="m-282.17 305.1c-1.3841-2.3375-5.9563-10.325-10.161-17.75s-17.42-30.516-29.369-51.313c-11.948-20.797-21.936-38.401-22.193-39.119-0.25851-0.71978 0.32893-1.5284 1.3094-1.8023 1.3224-0.36948 2.0629-2.043 2.8888-6.528 1.3949-7.5755 4.2378-12.195 9.0221-14.661 2.0522-1.0577 9.6276-5.8209 16.834-10.585 18.365-12.14 20.625-13.47 28.546-16.796 12.813-5.3807 27.233-7.7022 35.565-5.7261 3.9315 0.9324 11.168 4.7251 16.583 8.691l3.9477 2.8915 6.3474-6.8908c3.4911-3.7899 8.5514-8.0804 11.245-9.5344 9.4602-5.1061 13.78-5.7718 43.77-6.7459 15.443-0.50158 29.973-1.1625 32.289-1.4688l4.2116-0.5568 48.987 35.639c26.943 19.601 49.517 35.856 50.164 36.121 0.80459 0.32989 1.0417 1.9842 0.74974 5.2308l-0.42701 4.7483 18.082 14.522-0.58699 4.6917c-0.32284 2.5804-0.72934 5.1886-0.90333 5.7959-0.17398 0.60729-3.6171 1.4169-7.6515 1.7991-8.5879 0.81364-57.182 7.2909-84.081 11.207-17.882 2.6036-18.913 2.8748-23.067 6.0668-10.007 7.6882-20.514 10.851-33.332 10.034-8.5361-0.54414-9.216-0.42526-19.741 3.4518-27.312 10.061-57.199 23.102-82.373 35.945-7.4309 3.7907-13.652 6.8922-13.825 6.8922-0.17313 0-1.4472-1.9125-2.8313-4.25zm29.635-18.068c40.299-23.322 61.301-31.213 81.167-30.496l8.6858 0.31341 3e-3 -2.5c6e-3 -4.4316 1.8464-9.7702 5.2111-15.112 3.958-6.2842 3.5334-6.8055-5.6863-6.9832-28.16-0.54258-41.962 3.6846-74.164 22.713-12.286 7.26-30.839 17.415-33.87 18.54-0.50848 0.18855-1.4215 5.7428-2.0289 12.343-0.60741 6.6-1.5721 12.632-2.1439 13.405-1.2422 1.6789-0.59577 1.3328 22.827-12.222zm-24.15-7.6823 0.28438-6.5-27.603-46.752c-15.182-25.714-28.027-46.606-28.546-46.426-1.4208 0.49173-3.2091 4.9369-4.1493 10.314-0.66811 3.8211-0.52194 5.4429 0.71564 7.9402 0.85539 1.7261 14.19 24.587 29.633 50.802l28.078 47.664 0.65154-5.2707c0.35835-2.8989 0.77951-8.1957 0.93592-11.771zm11.565-11.866c4.0908-2.1264 14.889-8.3598 23.996-13.852 29.888-18.025 44.329-23.089 68.826-24.134l15.19-0.64811-33.618-34.745c-35.587-36.779-42.44-43.052-52.89-48.41-5.4328-2.7854-7.5936-3.3454-12.908-3.3454-14.096 0-29.571 5.4325-45.894 16.111-5.2504 3.4347-13.665 8.9139-18.699 12.176l-9.1526 5.9311 1.876 3.1411c1.0318 1.7276 13.574 23.032 27.871 47.343s26.438 44.224 26.98 44.25c0.54198 0.0263 4.3325-1.692 8.4233-3.8184zm136.81-23.774c6.3586-5.5337 16.462-10.901 23.08-12.26 7.0301-1.4444 28.996-2.9821 53.221-3.7258 11.711-0.35951 21.289-0.70314 21.285-0.76363-4e-3 -0.0605-0.82178-2.9724-1.8175-6.4708-0.99567-3.4985-2.0939-8.786-2.4405-11.75-0.34924-2.9867-1.1036-5.3766-1.6922-5.3611-45.787 1.2104-75.508 4.7983-90.709 10.95-6.6304 2.6835-15.17 10.839-20.891 19.95-2.2318 3.5547-3.862 6.6724-3.6225 6.9283s2.67-0.10756 5.4013-0.80763c6.8612-1.7587 8.3129-1.2452 10.463 3.7007 1.0162 2.3375 1.9698 4.25 2.119 4.25 0.14928 0 2.6707-2.0881 5.6032-4.6402zm-11.298-25.822c9.2563-7.5516 23.428-12.433 41.972-14.458 8.934-0.97553 53.771-4.0797 58.927-4.0797 1.6081 0 1.6675-0.17827 0.47028-1.4106-0.75375-0.77585-22.218-16.557-47.698-35.069-41.531-30.173-46.619-33.596-49.136-33.061-1.5443 0.32878-15.443 0.98147-30.885 1.4504-30.181 0.9165-35.211 1.6426-43.973 6.3472-5.2776 2.8338-16.851 14.001-16.212 15.644 0.15742 0.40494 17.262 17.949 38.01 38.987l37.724 38.251 3.2469-4.5434c1.7858-2.4989 5.1851-6.1247 7.554-8.0574z"
              fill="#dc3545"/>
        <path d="m-256.63 142.56c-17.036 0.24746-33.057 7.595-46.94 16.995-8.6412 5.5709-17.452 10.976-25.884 16.811 1.5874 4.7081 4.7622 8.8213 7.0914 13.221 15.395 25.926 30.363 52.116 46.346 77.686 0.97251 1.1643 1.6172 3.0281 2.9615 3.7033 7.7463-3.0387 14.743-7.7377 22.016-11.749 19.214-11.022 38.216-23.906 60.409-27.944 10.859-2.0318 21.955-1.7573 32.917-2.8132-23.427-24.099-46.485-48.583-70.782-71.814-6.7612-5.8615-14.26-11.569-23.094-13.738-1.6601-0.30951-3.3542-0.37868-5.0396-0.35975z"
              color="#000000" color-rendering="auto" fill="#fff" fill-rule="evenodd" image-rendering="auto"
              shape-rendering="auto" style="isolation:auto;mix-blend-mode:normal;paint-order:markers stroke fill"/>
        <path d="m-139.03 130.27c-18.556 1.1835-37.192 1.0418-55.711 2.7656-8.8335 0.83712-17.082 4.965-23.392 11.146-2.695 2.7168-5.8246 5.3134-7.7701 8.5917 4.594 5.8501 10.272 10.838 15.362 16.277 20.02 20.305 40.185 40.861 60.052 61.072 5.1116-7.417 11.489-14.2 19.767-18.065 18.398-9.1763 39.417-9.2072 59.452-10.873 11.07-0.82863 22.179-1.4324 33.244-2.0976-0.01425-1.0739-2.0214-1.908-2.7466-2.7571-23.291-17.561-47.016-34.543-70.664-51.62-7.4027-5.0645-14.448-10.778-22.508-14.789-1.6955 0.11644-3.391 0.23288-5.0865 0.34933z"
              color="#000000" color-rendering="auto" fill="#fff" fill-rule="evenodd" image-rendering="auto"
              shape-rendering="auto" style="isolation:auto;mix-blend-mode:normal;paint-order:markers stroke fill"/>
        <path d="m-42.026 203.68c-23.63 1.1631-47.451 1.8254-70.701 6.5776-9.1124 1.8964-18.594 4.7095-25.165 11.711-5.5479 5.3998-10.392 11.716-13.65 18.746 0.21599 0.97436 2.251-0.28975 2.9846-0.10055 3.3802-0.40447 7.4112-2.2945 10.516-0.17578 1.7411 2.3412 2.7865 5.1032 4.0869 7.6949 8.0044-6.9706 16.854-13.456 27.201-16.391 13.456-2.7076 27.267-2.821 40.928-3.6306 11.53-0.60174 23.174-0.70045 34.638-1.4983-1.6424-6.7513-3.2773-13.514-4.5047-20.362 0.13263-3.0768-2.0839-3.0463-4.5374-2.6436-0.59916 0.0244-1.1983 0.0489-1.7975 0.0733z"
              color="#000000" color-rendering="auto" fill="#fff" fill-rule="evenodd" image-rendering="auto"
              shape-rendering="auto" style="isolation:auto;mix-blend-mode:normal;paint-order:markers stroke fill"/>
        <path d="m-170.29 232.53c-14.716-0.15114-29.386 3.128-42.625 9.5592-17.461 8.2789-33.662 18.915-50.782 27.847-2.5054 1.3466-5.0481 2.6218-7.5771 3.9232-1.7458 8.4471-1.9927 17.281-3.7793 25.636 13.728-7.2207 26.91-15.513 40.662-22.727 16.797-8.7492 34.148-17.849 53.253-19.949 6.0019-0.48 12.029-0.25694 18.044-0.31122 0.11547-6.654 2.6128-12.943 6.1212-18.512 0.5495-1.375 2.8701-3.9871 0.56145-4.8545-4.5413-0.83355-9.2737-0.51669-13.878-0.61151z"
              color="#000000" color-rendering="auto" fill="#fff" fill-rule="evenodd" image-rendering="auto"
              shape-rendering="auto" style="isolation:auto;mix-blend-mode:normal;paint-order:markers stroke fill"/>
        <path d="m-332.71 180.11c-2.8037 3.1918-3.375 7.7943-4.0251 11.879-0.84703 4.9521 3.1447 8.8512 5.0732 13.036 17.594 30.395 35.52 60.596 53.311 90.876 1.0054-7.5925 1.3434-15.25 1.8412-22.887-17.987-30.235-35.529-60.747-54.213-90.56-0.64098-0.70045-1.0365-2.0729-1.987-2.3439z"
              color="#000000" color-rendering="auto" fill="#fff" fill-rule="evenodd" image-rendering="auto"
              shape-rendering="auto" style="isolation:auto;mix-blend-mode:normal;paint-order:markers stroke fill"/>
    </g>
</svg>
